P3
5 3
255
0 0 255 0 0 255 66 0 126 66 0 0 0 0 126 
0 0 0 0 0 0 66 0 126 255 250 126 219 183 0 
5 255 0 255 250 0 255 250 126 66 0 255 0 0 255 
