P3
2 2
255
61 41 30 155 113 88 
140 98 73 141 99 74 
