P3
1 2
255
155 113 88 
141 99 74 
